<svg xmlns="http://www.w3.org/2000/svg" height="24" viewBox="0 0 24 24" width="24"><path d="M0 0h24v24H0z" fill="none"/><path stroke="black" stroke-width="2" fill="none" d="M18.4,17C18.4,17 18,17 19,12S20,1 16,1H4C8,1 8,8.5 7,12S6,23 10,23C11.66,23 13,21.66 13,20S11.66,17 10,17H18.4"/><path stroke="black" stroke-width="2" fill-opacity="0.5" d="M7.5,7H4C2.34,7 1,5.66 1,4S2.34,1 4,1C8,1 7.4,7 7.5,7Z"/><path stroke="black" stroke-width="2" fill="none" d="M10.1,5h6M10.6,9h6M10,13h4"/><path stroke="black" stroke-width="2" fill-opacity="0.5" d="M19,17H20C21.66,17 23,18.34 23,20S21.66,23 20,23H10C11.66,23 13,21.66 13,20S11.66,17 10,17Z"/></svg>
