<svg xmlns="http://www.w3.org/2000/svg" height="24" viewBox="0 0 24 24" width="24"><path d="M0 0h24v24H0z" fill="none"/><path fill="#FF0000" d="M22,12C22,6.48 17.52,2 12,2s-10,4.48 -10,10s4.48,10 10,10s10,-4.48 10,-10z"/><path fill="#FFFFFF" d="M8,6.6C7.6,6.2 7,6.2 6.6,6.6S6.2,7.6 6.6,8L10.6,12 6.6,16C6.2,16.4 6.2,17 6.6,17.4S7.6,17.8 8,17.4L8,17.4 12,13.4 16,17.4C16.4,17.8 17,17.8 17.4,17.4S17.8,16.4 17.4,16L17.4,16 13.4,12 17.4,8C17.8,7.6 17.8,7 17.4,6.6S16.4,6.2 16,6.6L16,6.6 12,10.6z"/></svg>
