<?xml version="1.0" encoding="UTF-8" standalone="no" ?>
<!DOCTYPE svg PUBLIC "-//W3C//DTD SVG 1.1//EN" "http://www.w3.org/Graphics/SVG/1.1/DTD/svg11.dtd">
<svg xmlns="http://www.w3.org/2000/svg" xmlns:xlink="http://www.w3.org/1999/xlink" version="1.1" width="24" height="24" viewBox="0 0 48 48" xml:space="preserve">
<desc>Created with Fabric.js 4.6.0</desc>
<defs>
</defs>
<g transform="matrix(1.4 0.32 -0.32 1.4 23.73 24.13)" id="_BD1NmkatUvaOm0ug9wHf"  >
<path style="stroke: rgb(0,0,0); stroke-width: 0; stroke-dasharray: none; stroke-linecap: butt; stroke-dashoffset: 0; stroke-linejoin: miter; stroke-miterlimit: 4; fill: rgb(0,0,0); fill-opacity: 0.78; fill-rule: nonzero; opacity: 1;" vector-effect="non-scaling-stroke"  transform=" translate(-10.92, -14.67)" d="M 7.25942 14.82585 C 7.7812 14.82585 8.29018 14.88099 8.780850000000001 14.98576 L 16.871540000000003 0.3897700000000004 C 17.074040000000004 0.02446000000000037 17.534340000000004 -0.10752999999999963 17.899650000000005 0.09496000000000038 L 20.406320000000004 1.4844300000000004 C 20.771630000000005 1.6869300000000003 20.903620000000004 2.1472300000000004 20.701130000000006 2.5125400000000004 L 20.145340000000004 3.5152100000000006 L 21.474230000000006 4.251830000000001 C 21.823660000000007 4.445520000000001 21.949910000000006 4.885810000000001 21.756220000000006 5.235240000000001 L 20.804380000000005 6.952410000000001 C 20.610690000000005 7.301840000000001 20.170400000000004 7.428090000000001 19.820970000000006 7.234400000000002 L 18.492080000000005 6.497780000000001 L 17.790280000000006 7.7638500000000015 L 19.156330000000008 8.521060000000002 C 19.50576000000001 8.714750000000002 19.632010000000008 9.155040000000001 19.438320000000008 9.504470000000001 L 18.486480000000007 11.22164 C 18.292790000000007 11.57107 17.852500000000006 11.697320000000001 17.503070000000008 11.503630000000001 L 16.137020000000007 10.74642 L 12.585310000000007 17.15387 C 13.785130000000008 18.44895 14.518840000000006 20.18195 14.518840000000006 22.08528 C 14.518840000000006 26.092480000000002 11.266620000000007 29.344700000000003 7.259420000000006 29.344700000000003 C 3.2522200000000057 29.344700000000003 5.329070518200751e-15 26.092480000000002 5.329070518200751e-15 22.085280000000004 C 5.329070518200751e-15 18.078080000000003 3.252220000000005 14.825860000000004 7.259420000000006 14.825860000000004 z M 5.21851 24.61701 C 5.21851 25.74359 6.13283 26.65791 7.259410000000001 26.65791 C 8.385990000000001 26.65791 9.300310000000001 25.74359 9.300310000000001 24.61701 C 9.300310000000001 23.49043 8.385990000000001 22.57611 7.259410000000001 22.57611 C 6.132830000000001 22.57611 5.21851 23.49043 5.21851 24.61701 z" stroke-linecap="round" />
</g>
</svg>