<svg xmlns="http://www.w3.org/2000/svg" height="24" viewBox="0 0 24 24" width="24"><path d="M0 0h24v24H0z" fill="none"/><g fill="#fff"><path d="M17.5 3a6.5 6.5 0 100 13 6.5 6.5 0 000-13zm0 2C19.99 5 22 7.01 22 9.5S19.99 14 17.5 14 13 11.99 13 9.5 15.01 5 17.5 5z"/><path d="M20.47 15.27l-.91.38.14.36-.3.73 2.74 6.51 1.94-.82-2.73-6.52-.73-.3zM11 4.45C7.02 4.45 3.04 5.97 0 9l2 2c2.59-2.59 6-3.81 9.39-3.71l1.82-2.67c-.73-.1-1.47-.17-2.21-.14zm0 5.66c-2.53 0-5.06.96-7 2.89l2 2c1.64-1.64 3.9-2.3 6.04-1.99l-1.01-2.91H11zm0 5.65c-1.08 0-2.17.41-3 1.24l3 3 3-3a4.216 4.216 0 00-3-1.24z"/></g><path d="M15.98 5.28c-1.1.4-1.99 1.2-2.5 2.24 2.39.47 4.67 1.63 6.52 3.48l1.95-1.95c0-.03 0-.07-.01-.1a15.334 15.334 0 00-5.96-3.67zm-2.9 5.05a4.472 4.472 0 003.96 3.62L18 13a9.843 9.843 0 00-4.92-2.67z" fill="#8092CA"/></svg>