<svg xmlns="http://www.w3.org/2000/svg" height="24" viewBox="0 0 24 24" width="24"><path d="M0 0h24v24H0z" fill="none"/><g fill="white"><path d="M17.5,3 C13.91,3 11,5.91 11,9.5 11,13.09 13.91,16 17.5,16 21.09,16 24,13.09 24,9.5 24,5.91 21.09,3 17.5,3 Z m 0,2 C 19.99,5 22,7.01 22,9.5 22,11.99 19.99,14 17.5,14 15.01,14 13,11.99 13,9.5 13,7.01 15.01,5 17.5,5 z"/><path d="m20.47,15.27 -0.91,0.38 0.14,0.36 -0.3,0.73 2.74,6.51 1.94,-0.82 -2.73,-6.52 -0.73,-0.3 z"/><path d="M11,4.45 C7.02,4.45 3.04,5.97 0,9 l2,2 C4.59,8.41 8,7.19 11.39,7.29 L13.21,4.62 C12.48,4.52 11.74,4.45 11,4.48 Z m0,5.66 c-2.53,0 -5.06,0.96 -7,2.89 l2,2 c1.64,-1.64 3.9,-2.3 6.04,-1.99 L11.03,10.1 H11 Z m0,5.65 c-1.08,0 -2.17,0.41 -3,1.24 l3,3 3,-3 c-0.83,-0.83 -1.91,-1.24 -3,-1.24 z"/></g><path d="M15.98,5.28 C14.88,5.68 13.99,6.48 13.48,7.52 15.87,7.99 18.15,9.15 20,11 l1.95,-1.95 c0,-0.03 0,-0.07 -0.01,-0.1 C20.21,7.23 18.16,6.01 15.98,5.28 Z m-2.9,5.05 c0.36,1.94 1.97,3.42 3.96,3.62 L18,13 c-1.4,-1.4 -3.11,-2.28 -4.92,-2.67 z" fill="#8092CA"/></svg>
