<?xml version="1.0" encoding="UTF-8" standalone="no"?>
<svg
   xmlns:dc="http://purl.org/dc/elements/1.1/"
   xmlns:cc="http://creativecommons.org/ns#"
   xmlns:rdf="http://www.w3.org/1999/02/22-rdf-syntax-ns#"
   xmlns:svg="http://www.w3.org/2000/svg"
   xmlns="http://www.w3.org/2000/svg"
   xmlns:sodipodi="http://sodipodi.sourceforge.net/DTD/sodipodi-0.dtd"
   xmlns:inkscape="http://www.inkscape.org/namespaces/inkscape"
   version="1.1"
   id="Livello_1"
   x="0px"
   y="0px"
   viewBox="0 0 190 31.5"
   xml:space="preserve"
   sodipodi:docname="datalogic.svg"
   width="190"
   height="31.5"
   inkscape:version="1.0.1 (3bc2e813f5, 2020-09-07)"><metadata
   id="metadata172"><rdf:RDF><cc:Work
       rdf:about=""><dc:format>image/svg+xml</dc:format><dc:type
         rdf:resource="http://purl.org/dc/dcmitype/StillImage" /></cc:Work></rdf:RDF></metadata><defs
   id="defs170" /><sodipodi:namedview
   pagecolor="#ffffff"
   bordercolor="#666666"
   borderopacity="1"
   objecttolerance="10"
   gridtolerance="10"
   guidetolerance="10"
   inkscape:pageopacity="0"
   inkscape:pageshadow="2"
   inkscape:window-width="1352"
   inkscape:window-height="755"
   id="namedview168"
   showgrid="false"
   inkscape:zoom="2.5428571"
   inkscape:cx="144.52245"
   inkscape:cy="30.651687"
   inkscape:window-x="234"
   inkscape:window-y="208"
   inkscape:window-maximized="0"
   inkscape:current-layer="Livello_1"
   inkscape:document-rotation="0" />
<style
   type="text/css"
   id="style133">
	.st0{fill:#002596;}
	.st1{fill-rule:evenodd;clip-rule:evenodd;fill:#002596;}
	.st2{fill:#6F6F6E;}
	.st3{enable-background:new    ;}
	.st4{fill:#BDBDBD;}
</style>
<g
   id="logo_Datalogic_Completo"
   transform="matrix(0.66292134,0,0,0.66292134,676.5056,-68.471909)">
	<g
   id="logo_Datalogic">
		<path
   id="Path_180"
   class="st0"
   d="m -926.2,115.2 c -0.7,-1.7 -2.4,-2.9 -4.3,-2.9 -2,0 -3.7,1.2 -4.5,3 l -11.4,26.7 h 7.3 l 8.4,-21.6 3.7,10 h -3.8 v 5.9 h 6.1 l 2.5,5.8 h 7.4 l -0.6,-1.4 z" />
		<path
   id="Path_181"
   class="st0"
   d="m -771.9,113.1 h -6.3 V 142 h 6.3 z" />
		<path
   id="Path_182"
   class="st0"
   d="m -951.9,115.8 c -2.1,-1.7 -5.2,-2.7 -9.3,-2.7 H -974 v 5.8 h 12.2 c 5.6,0 7.8,2.1 7.8,8.5 0.1,2.1 -0.4,4.2 -1.4,6.1 -1.1,2 -3.2,2.8 -6.7,2.8 h -5.6 v -8.7 H -974 V 142 l 13.2,0.1 h 1.7 c 2.6,0.1 5.2,-0.8 7.3,-2.3 3,-2.3 4.7,-6.2 4.7,-11.9 -0.1,-5.5 -1.8,-9.7 -4.8,-12.1 z" />
		<path
   id="Path_183"
   class="st0"
   d="m -879,112.3 c -2,0 -3.7,1.2 -4.5,3 l -11.3,26.7 h 7.3 l 8.5,-21.6 3.7,10 h -3.7 v 5.9 h 6 l 2.4,5.8 h 7.4 l -11.4,-26.8 c -0.8,-1.8 -2.5,-3 -4.4,-3 z" />
		<path
   id="Path_184"
   class="st0"
   d="m -904,135 c -1.7,-1.5 -1.5,-3.3 -1.5,-5.3 v -10.8 h 7.7 v -5.8 H -916 v 5.8 h 4.3 v 10.8 c 0,5.1 0.5,7 2.2,8.9 1.9,2.3 4.7,3.4 9.1,3.4 h 3 v -5.8 h -0.2 c -4,0 -5.3,-0.2 -6.4,-1.2 z" />
		<path
   id="Path_185"
   class="st0"
   d="m -828.9,112.7 v 0 c -9.9,0 -14.6,5.4 -14.6,15.4 0,5.2 1.7,9.5 4.7,11.6 2.3,1.8 6,2.8 9.9,2.8 h 0.4 c 9.3,0 14.1,-4.9 14.1,-14.3 -0.1,-10 -4.8,-15.5 -14.5,-15.5 z m 0,25 c -5.3,0 -7.7,-3 -7.7,-9.8 0,-6.8 2.3,-10.3 7.7,-10.3 5.2,0 7.6,3.6 7.6,10.3 0,6.8 -2.4,9.8 -7.6,9.8 z" />
		<path
   id="Path_186"
   class="st0"
   d="m -854.5,135 c -1.6,-1.4 -1.4,-3.3 -1.5,-5.3 v -16.6 h -6.2 v 16.6 c 0,5.1 0.5,7.4 2.1,9.4 1.9,2.3 4.7,2.9 9.1,2.9 h 5.5 v -5.8 h -2.5 c -4.1,0 -5.4,-0.2 -6.5,-1.2 z" />
		<path
   id="Path_187"
   class="st0"
   d="m -789.3,135.4 c 0,0.5 -0.4,0.9 -0.9,0.9 0,0 0,0 -0.1,0 h -4.8 c -3.4,0 -5.5,-0.4 -6.6,-2.4 -1,-1.9 -1.5,-4.1 -1.4,-6.3 0,-6.4 2.2,-8.6 7.8,-8.6 h 6 v -5.8 h -6.7 c -3.4,-0.1 -6.7,0.9 -9.4,2.8 -3,2.3 -4.5,6.6 -4.5,12.1 0,5.6 1.5,9.4 4.5,11.7 2.2,1.5 4.8,2.3 7.5,2.3 h 10.3 c 2.4,0 4.5,-1.9 4.5,-4.4 v -10.1 h -6.2 z" />
		<path
   id="Path_188"
   class="st0"
   d="m -758.3,119.8 c 1.2,-0.8 2.8,-1 5,-1 h 9.3 V 113 h -10 c -4.7,0 -8,0.9 -10,2.8 -2.6,2.7 -4,6.5 -4,11.5 0,7.2 2.6,12.1 7.4,13.7 2,0.8 4.2,1.1 6.3,1 h 10.3 v -5.8 h -9 c -3.4,0 -5.6,-0.4 -6.6,-2.4 -1,-2.2 -1.5,-4.6 -1.4,-7 -0.1,-4.1 0.7,-5.7 2.7,-7 z" />
		<path
   id="Path_189"
   class="st1"
   d="m -981.5,126.3 c -0.5,7.5 -6.6,13.4 -14.1,13.7 0,-2.8 0.4,-10.4 2.5,-11.9 2.6,-1.6 7.9,-1.8 11.6,-1.8 z m -15.4,13.7 c -7.5,-0.3 -13.6,-6.2 -14.1,-13.7 3.7,0 9,0.2 11.5,1.9 2.2,1.3 2.6,9 2.6,11.8 z m -14.1,-15.2 c 0.4,-7.5 6.5,-13.5 14.1,-13.8 0,2.8 -0.4,10.5 -2.5,11.9 -2.6,1.6 -7.9,1.9 -11.6,1.9 z m 15.4,-13.8 c 7.5,0.3 13.6,6.3 14.1,13.8 -3.7,0 -9,-0.3 -11.5,-1.9 -2.2,-1.4 -2.6,-9.1 -2.6,-11.9 z" />
	</g>
	<g
   class="st3"
   id="g164">
		
		
		
		
		
		
		
		
		
	</g>
</g>
</svg>
