<?xml version="1.0" encoding="UTF-8" standalone="no"?>
<svg
   xmlns:dc="http://purl.org/dc/elements/1.1/"
   xmlns:cc="http://creativecommons.org/ns#"
   xmlns:rdf="http://www.w3.org/1999/02/22-rdf-syntax-ns#"
   xmlns:svg="http://www.w3.org/2000/svg"
   xmlns="http://www.w3.org/2000/svg"
   xmlns:sodipodi="http://sodipodi.sourceforge.net/DTD/sodipodi-0.dtd"
   xmlns:inkscape="http://www.inkscape.org/namespaces/inkscape"
   version="1.1"
   id="Livello_1"
   x="0px"
   y="0px"
   viewBox="0 0 190 31.5"
   xml:space="preserve"
   sodipodi:docname="datalogic-dark.svg"
   width="190"
   height="31.5"
   inkscape:version="1.0.1 (3bc2e813f5, 2020-09-07)"><metadata
   id="metadata172"><rdf:RDF><cc:Work
       rdf:about=""><dc:format>image/svg+xml</dc:format><dc:type
         rdf:resource="http://purl.org/dc/dcmitype/StillImage" /></cc:Work></rdf:RDF></metadata><defs
   id="defs170" /><sodipodi:namedview
   pagecolor="#ffffff"
   bordercolor="#666666"
   borderopacity="1"
   objecttolerance="10"
   gridtolerance="10"
   guidetolerance="10"
   inkscape:pageopacity="0"
   inkscape:pageshadow="2"
   inkscape:window-width="1352"
   inkscape:window-height="755"
   id="namedview168"
   showgrid="false"
   inkscape:zoom="7.192286"
   inkscape:cx="98.797109"
   inkscape:cy="30.651687"
   inkscape:window-x="316"
   inkscape:window-y="151"
   inkscape:window-maximized="0"
   inkscape:current-layer="Livello_1"
   inkscape:document-rotation="0" />
<style
   type="text/css"
   id="style133">
	.st0{fill:#002596;}
	.st1{fill-rule:evenodd;clip-rule:evenodd;fill:#002596;}
	.st2{fill:#6F6F6E;}
	.st3{enable-background:new    ;}
	.st4{fill:#BDBDBD;}
</style>
<g
   id="logo_Datalogic_Completo"
   transform="matrix(0.66292134,0,0,0.66292134,676.5056,-68.471909)">
	<g
   id="logo_Datalogic">
		<path
   id="Path_180"
   class="st0"
   d="m -926.2,115.2 c -0.7,-1.7 -2.4,-2.9 -4.3,-2.9 -2,0 -3.7,1.2 -4.5,3 l -11.4,26.7 h 7.3 l 8.4,-21.6 3.7,10 h -3.8 v 5.9 h 6.1 l 2.5,5.8 h 7.4 l -0.6,-1.4 z" />
		<path
   id="Path_181"
   class="st0"
   d="m -771.9,113.1 h -6.3 V 142 h 6.3 z" />
		<path
   id="Path_182"
   class="st0"
   d="m -951.9,115.8 c -2.1,-1.7 -5.2,-2.7 -9.3,-2.7 H -974 v 5.8 h 12.2 c 5.6,0 7.8,2.1 7.8,8.5 0.1,2.1 -0.4,4.2 -1.4,6.1 -1.1,2 -3.2,2.8 -6.7,2.8 h -5.6 v -8.7 H -974 V 142 l 13.2,0.1 h 1.7 c 2.6,0.1 5.2,-0.8 7.3,-2.3 3,-2.3 4.7,-6.2 4.7,-11.9 -0.1,-5.5 -1.8,-9.7 -4.8,-12.1 z" />
		<path
   id="Path_183"
   class="st0"
   d="m -879,112.3 c -2,0 -3.7,1.2 -4.5,3 l -11.3,26.7 h 7.3 l 8.5,-21.6 3.7,10 h -3.7 v 5.9 h 6 l 2.4,5.8 h 7.4 l -11.4,-26.8 c -0.8,-1.8 -2.5,-3 -4.4,-3 z" />
		<path
   id="Path_184"
   class="st0"
   d="m -904,135 c -1.7,-1.5 -1.5,-3.3 -1.5,-5.3 v -10.8 h 7.7 v -5.8 H -916 v 5.8 h 4.3 v 10.8 c 0,5.1 0.5,7 2.2,8.9 1.9,2.3 4.7,3.4 9.1,3.4 h 3 v -5.8 h -0.2 c -4,0 -5.3,-0.2 -6.4,-1.2 z" />
		<path
   id="Path_185"
   class="st0"
   d="m -828.9,112.7 v 0 c -9.9,0 -14.6,5.4 -14.6,15.4 0,5.2 1.7,9.5 4.7,11.6 2.3,1.8 6,2.8 9.9,2.8 h 0.4 c 9.3,0 14.1,-4.9 14.1,-14.3 -0.1,-10 -4.8,-15.5 -14.5,-15.5 z m 0,25 c -5.3,0 -7.7,-3 -7.7,-9.8 0,-6.8 2.3,-10.3 7.7,-10.3 5.2,0 7.6,3.6 7.6,10.3 0,6.8 -2.4,9.8 -7.6,9.8 z" />
		<path
   id="Path_186"
   class="st0"
   d="m -854.5,135 c -1.6,-1.4 -1.4,-3.3 -1.5,-5.3 v -16.6 h -6.2 v 16.6 c 0,5.1 0.5,7.4 2.1,9.4 1.9,2.3 4.7,2.9 9.1,2.9 h 5.5 v -5.8 h -2.5 c -4.1,0 -5.4,-0.2 -6.5,-1.2 z" />
		<path
   id="Path_187"
   class="st0"
   d="m -789.3,135.4 c 0,0.5 -0.4,0.9 -0.9,0.9 0,0 0,0 -0.1,0 h -4.8 c -3.4,0 -5.5,-0.4 -6.6,-2.4 -1,-1.9 -1.5,-4.1 -1.4,-6.3 0,-6.4 2.2,-8.6 7.8,-8.6 h 6 v -5.8 h -6.7 c -3.4,-0.1 -6.7,0.9 -9.4,2.8 -3,2.3 -4.5,6.6 -4.5,12.1 0,5.6 1.5,9.4 4.5,11.7 2.2,1.5 4.8,2.3 7.5,2.3 h 10.3 c 2.4,0 4.5,-1.9 4.5,-4.4 v -10.1 h -6.2 z" />
		<path
   id="Path_188"
   class="st0"
   d="m -758.3,119.8 c 1.2,-0.8 2.8,-1 5,-1 h 9.3 V 113 h -10 c -4.7,0 -8,0.9 -10,2.8 -2.6,2.7 -4,6.5 -4,11.5 0,7.2 2.6,12.1 7.4,13.7 2,0.8 4.2,1.1 6.3,1 h 10.3 v -5.8 h -9 c -3.4,0 -5.6,-0.4 -6.6,-2.4 -1,-2.2 -1.5,-4.6 -1.4,-7 -0.1,-4.1 0.7,-5.7 2.7,-7 z" />
		<path
   id="Path_189"
   class="st1"
   d="m -981.5,126.3 c -0.5,7.5 -6.6,13.4 -14.1,13.7 0,-2.8 0.4,-10.4 2.5,-11.9 2.6,-1.6 7.9,-1.8 11.6,-1.8 z m -15.4,13.7 c -7.5,-0.3 -13.6,-6.2 -14.1,-13.7 3.7,0 9,0.2 11.5,1.9 2.2,1.3 2.6,9 2.6,11.8 z m -14.1,-15.2 c 0.4,-7.5 6.5,-13.5 14.1,-13.8 0,2.8 -0.4,10.5 -2.5,11.9 -2.6,1.6 -7.9,1.9 -11.6,1.9 z m 15.4,-13.8 c 7.5,0.3 13.6,6.3 14.1,13.8 -3.7,0 -9,-0.3 -11.5,-1.9 -2.2,-1.4 -2.6,-9.1 -2.6,-11.9 z" />
	</g>
	<g
   class="st3"
   id="g164">
		
		
		
		
		
		
		
		
		
	</g>
</g>
<path
   style="fill:#ffffff;stroke-width:0.393258"
   d="M 20.879779,13.605339 C 18.016255,12.994258 17.267332,11.953145 16.999606,8.2113253 L 16.795735,5.361962 18.131002,5.6265912 c 3.256069,0.6453025 6.636969,4.004948 7.275893,7.2301518 0.246517,1.244387 0.218195,1.27709 -1.074054,1.240169 -0.729986,-0.02085 -2.283864,-0.242063 -3.453062,-0.491573 z"
   id="path20" /><path
   style="fill:#ffffff;stroke-width:0.393258"
   d="M 6.8133898,12.711775 C 7.3068148,9.6711533 10.850551,6.1082969 13.868556,5.618542 l 1.468499,-0.2383045 -0.03022,1.9194324 c -0.01662,1.0556879 -0.240031,2.6272976 -0.496462,3.4924661 -0.571332,1.9276 -2.07553,2.757071 -5.7259646,3.157507 l -2.5166941,0.276071 z"
   id="path22" /><path
   style="fill:#ffffff;stroke-width:0.393258"
   d="M 11.904274,23.142442 C 9.2105429,21.809065 6.685369,18.398777 6.685369,16.094228 c 0,-0.769449 0.1477895,-0.803241 2.4578652,-0.561993 3.5937008,0.375302 5.0979828,1.204819 5.6671358,3.12507 0.256431,0.865168 0.47984,2.413623 0.496462,3.441011 0.02725,1.684032 -0.05691,1.867947 -0.854609,1.867667 -0.486657,-1.7e-4 -1.633234,-0.370764 -2.547949,-0.823541 z"
   id="path24" /><path
   style="fill:#ffffff;stroke-width:0.393258"
   d="m 16.947107,21.346293 c 0.512828,-4.799521 0.960896,-5.207438 6.409653,-5.835291 l 2.317457,-0.267038 -0.260258,1.313412 c -0.655332,3.30718 -4.142405,6.740242 -7.379926,7.265619 l -1.37541,0.223199 z"
   id="path26" /><path
   style="fill:#ffffff;stroke-width:0.393258"
   d="m 31.067392,21.016855 v -4.522472 h 1.966292 1.966292 v 2.752809 2.752809 h 2.930935 c 1.612013,0 3.373148,-0.201486 3.913632,-0.447747 1.906522,-0.868669 2.826861,-4.573308 2.067179,-8.32101 -0.509141,-2.511715 -1.838672,-3.025769 -7.830285,-3.027526 l -5.014045,-0.0015 V 8.4325855 6.6629226 h 4.844354 c 7.271606,0 9.581669,0.9484125 11.494388,4.7191014 1.694253,3.340009 0.995783,9.704223 -1.307119,11.910017 -1.966275,1.88336 -3.506874,2.247286 -9.513374,2.247286 h -5.518249 z"
   id="path28" /><path
   style="fill:#ffffff;stroke-width:0.393258"
   d="m 49.550538,25.376978 c 0,-0.84885 7.696437,-17.8990728 8.314351,-18.4191116 1.077377,-0.9067253 2.79909,-0.8751147 3.651733,0.067046 0.546396,0.6037601 8.090096,17.7083256 8.090096,18.3434616 0,0.09402 -0.968395,0.170953 -2.151989,0.170953 h -2.15199 L 64.456863,23.573035 63.610987,21.606743 H 61.693122 59.775258 V 19.83708 c 0,-1.712759 0.03879,-1.769663 1.206276,-1.769663 1.071591,0 1.17507,-0.09879 0.92679,-0.884831 -0.841642,-2.664575 -2.042196,-5.464318 -2.359564,-5.502603 -0.199865,-0.02411 -1.585112,3.084378 -3.078328,6.907753 l -2.714937,6.951591 h -2.102478 c -1.156363,0 -2.102479,-0.07306 -2.102479,-0.162349 z"
   id="path30" /><path
   style="fill:#ffffff;stroke-width:0.393258"
   d="m 76.561023,24.96957 c -3.515862,-1.253914 -4.201496,-2.827426 -4.201496,-9.642331 v -5.124991 h -1.376404 c -1.369122,0 -1.376405,-0.0094 -1.376405,-1.7696625 V 6.6629226 h 5.702248 5.702247 V 8.4325855 10.202248 H 78.42296 75.834708 l 0.130387,4.950708 c 0.128181,4.866936 0.149058,4.966751 1.233778,5.898876 0.762568,0.655293 1.582505,0.948169 2.654494,0.948169 h 1.551104 v 1.769663 1.769663 l -1.671348,-0.01726 c -0.919242,-0.0095 -2.346686,-0.258116 -3.1721,-0.552497 z"
   id="path32" /><path
   style="fill:#ffffff;stroke-width:0.393258"
   d="M 83.904538,24.953862 C 85.880387,19.804881 91.173224,7.8215326 91.766208,7.1544956 92.75046,6.0473298 94.777903,5.9727389 95.715874,7.0091851 96.25041,7.5998416 103.8202,24.788354 103.8202,25.411455 c 0,0.09192 -0.9954,0.11405 -2.21201,0.04918 l -2.212008,-0.11794 -0.688169,-1.769663 C 98.028192,21.824841 97.995392,21.80193 96.004293,21.684506 L 93.988741,21.56564 v -1.749112 c 0,-1.681284 0.04575,-1.749111 1.179776,-1.749111 0.648876,0 1.179775,-0.135604 1.179775,-0.301343 0,-0.658653 -2.279513,-6.187421 -2.551076,-6.187421 -0.159658,0 -1.540866,3.141152 -3.069352,6.980337 L 87.9488,25.539327 h -2.134463 c -1.728569,0 -2.091741,-0.111333 -1.909799,-0.585465 z"
   id="path34" /><path
   style="fill:#ffffff;stroke-width:0.393258"
   d="M 109.30285,25.166429 C 105.60968,24.04577 105.2647,23.138346 105.0716,14.036518 l -0.15643,-7.3735954 h 2.0087 2.00869 v 6.6418264 c 0,8.182478 0.0871,8.366733 4.07667,8.620767 l 2.60873,0.166111 v 1.72385 1.72385 l -2.6545,-0.0338 c -1.45997,-0.01859 -3.10724,-0.171185 -3.66061,-0.339097 z"
   id="path36" /><path
   style="fill:#ffffff;stroke-width:0.393258"
   d="m 124.398,25.54303 c -4.63328,-0.975858 -6.80612,-4.003341 -6.81156,-9.490776 -0.006,-5.999238 3.23251,-9.4395489 8.9804,-9.5401365 4.98452,-0.087229 8.09026,2.013253 9.34168,6.3179755 1.13064,3.889281 0.19445,8.77406 -2.07491,10.826259 -1.85539,1.677844 -6.2526,2.55708 -9.43561,1.886678 z m 5.70505,-3.424905 c 1.31866,-0.822737 2.03176,-2.858331 2.03176,-5.799782 0,-4.781242 -1.60163,-6.9091211 -5.19115,-6.8968141 -3.86092,0.013238 -5.12967,1.8981161 -4.95381,7.3594901 0.10671,3.313719 0.20657,3.718982 1.14841,4.660245 1.69487,1.693834 4.84426,1.999902 6.96479,0.676861 z"
   id="path38" /><path
   style="fill:#ffffff;stroke-width:0.393258"
   d="m 144.91571,25.05895 c -3.46245,-1.227598 -4.91573,-3.695635 -4.91573,-8.348158 0,-1.691028 0.21444,-3.790322 0.47652,-4.6651 1.03566,-3.4567155 4.54928,-5.3827694 9.81957,-5.3827694 h 2.68144 v 1.7696629 1.7696625 h -2.56881 c -3.3898,0 -5.16076,0.759181 -5.9004,2.529396 -1.24722,2.985006 -0.33566,7.927436 1.62702,8.821695 0.53917,0.245664 2.38772,0.446662 4.10788,0.446662 h 3.12756 v -2.752809 -2.752809 h 2.00426 2.00425 l -0.13627,3.771138 c -0.18582,5.142089 -0.36473,5.284851 -6.5703,5.24276 -2.51747,-0.01708 -5.10812,-0.219275 -5.75699,-0.449331 z"
   id="path40" /><path
   style="fill:#ffffff;stroke-width:0.393258"
   d="M 160.84267,16.101125 V 6.6629226 h 1.9663 1.96629 v 9.4382024 9.438202 h -1.96629 -1.9663 z"
   id="path42" /><path
   style="fill:#ffffff;stroke-width:0.393258"
   d="m 172.89104,24.963277 c -3.13873,-1.118922 -4.843,-3.689565 -5.23878,-7.901916 -0.45271,-4.818351 1.73041,-8.99828 5.20325,-9.9624513 0.85502,-0.2373805 3.54545,-0.4325877 5.97874,-0.433794 l 4.42416,-0.00219 v 1.7367279 1.7367284 l -4.70926,0.131249 c -4.28461,0.119415 -4.78994,0.212111 -5.60394,1.027975 -0.79447,0.796295 -0.89467,1.28277 -0.89467,4.343664 0,5.579511 0.89669,6.360734 7.30088,6.360734 h 3.90699 v 1.769663 1.769663 l -4.42416,-0.01726 c -2.7162,-0.0106 -5.01059,-0.226319 -5.94321,-0.558789 z"
   id="path44" /></svg>
