<svg xmlns="http://www.w3.org/2000/svg" width="126" height="126" viewBox="0 0 126 126"><g transform="translate(0,7)"><linearGradient id="back" x1="0" x2="0" y1="0" y2="1"><stop offset="0" style="stop-color:#DEBF4E"/><stop offset="1" style="stop-color:#C5A239"/></linearGradient><path style="fill:url(#back)" stroke="#9E822D" stroke-width="4" d="M15,2c-7.18,0 -13,5.82 -13,13s4.92,11 11,11h20v-24Z" /><path fill="#EFE0A5" d="M13,26h20v-7h-13c0,3.87 -3.13,7 -7,7Z" /><path fill-opacity="0" stroke="#9E822D" stroke-width="4" d="M33,26h-20c3.87,0 7,-3.13 7,-7" /><linearGradient id="page" x1="0" x2="0" y1="0" y2="1"><stop offset="0" style="stop-color:#EFE0A5"/><stop offset="1" style="stop-color:#D1B560"/></linearGradient><path style="fill:url(#page)" stroke="#9E822D" stroke-width="4" d="M85,2h-68c18,0 18,32 13,48s-5,60 13,60h68c-18,0 -18,-45 -13,-60s5,-48 -13,-48Z" /><path fill="#B19233" d="M38,93c0,-3.87 3.13,-7 7,-7h10v7Z" /><path fill-opacity="0" stroke="#9E822D" stroke-width="4" d="M38,93c0,-3.87 3.13,-7 7,-7" /><linearGradient id="bottom" x1="0" x2="0" y1="0" y2="1"><stop offset="0.0147" style="stop-color:#EFE0A5"/><stop offset="1" style="stop-color:#D1B560"/></linearGradient><path style="fill:url(#bottom)" stroke="#9E822D" stroke-width="4" d="M43,110h68c7.18,0 13,-5.82 13,-13s-4.92,-11 -11,-11h-68c6.08,0 11,4.92 11,11s-5.82,13 -13,13Z" />	<path stroke="#8A7128" stroke-width="5" stroke-linecap="round" d="M47,21 h42m0,14 h-42m-2,14 h42m-3,14 h-42m0,14 h19" /></g></svg>