<svg xmlns="http://www.w3.org/2000/svg" width="512" height="512">
	<path fill="#002596" d="M0,64a64,64 0 0 1 64,-64h384a64,64 0 0 1 64,64v384a64,64 0 0 1 -64,64h-384a64,64 0 0 1 -64,-64z" />

  <g transform="scale(21.33)">

	<path fill="#FFFFFF"
		d="M4,5a1,1 0 0 0 -1,1v12a1,1 0 0 0 1,1h16a1,1 0 0 0 1,-1v-12a1,1 0 0 0 -1,-1zM4.5,7a1,1 0 0 1 2,0a1,1 0 0 1 -2,0zM7.5,7a1,1 0 0 1 2,0a1,1 0 0 1 -2,0zM10.5,7a1,1 0 0 1 2,0a1,1 0 0 1 -2,0zM5,9h14v8h-1.5v2h-11v-2h-1.5z" />
	<path fill="#FFFFFF" fill-opacity="0.33"
		d="M5,9v8h1.5v-2.5h1.5v-1.3a4,4 0 0 1 8,0v1.3h1.5v2.5h1.5v-8z" />
	<path fill="#009000"
		d="M4.7,7a0.8,0.8 0 0 1 1.6,0a0.8,0.8 0 0 1 -1.6,0z" />
	<path fill="#FFCC00"
		d="M7.7,7a0.8,0.8 0 0 1 1.6,0a0.8,0.8 0 0 1 -1.6,0z" />
	<path fill="#FF4444"
		d="M10.7,7a0.8,0.8 0 0 1 1.6,0a0.8,0.8 0 0 1 -1.6,0z" />
	<path stroke="#FFFFFF" stroke-width="1.5" fill-opacity="0"
		d="M9.75,15.3v-2a2.25,2.25 0 0 1 4.5,0v2" />
	<path fill="#FFCC00"
		d="M7.5,15.5v5.5a6,6 0 0 0 9,0v-5.5zM11.7,18.4a1,1 0 1 1 0.6,0l0.7,2.1h-2z" />

</g>
</svg>
