<?xml version="1.0" encoding="UTF-8" standalone="no"?>
<svg
   width="512"
   height="512"
   version="1.1"
   id="svg8"
   sodipodi:docname="battery-v2.svg"
   xml:space="preserve"
   inkscape:version="1.4.2 (1:1.4.2+202505120738+ebf0e940d0)"
   xmlns:inkscape="http://www.inkscape.org/namespaces/inkscape"
   xmlns:sodipodi="http://sodipodi.sourceforge.net/DTD/sodipodi-0.dtd"
   xmlns="http://www.w3.org/2000/svg"
   xmlns:svg="http://www.w3.org/2000/svg"><defs
     id="defs8" /><sodipodi:namedview
     id="namedview8"
     pagecolor="#ffffff"
     bordercolor="#000000"
     borderopacity="0.25"
     inkscape:showpageshadow="2"
     inkscape:pageopacity="0.0"
     inkscape:pagecheckerboard="0"
     inkscape:deskcolor="#d1d1d1"
     inkscape:zoom="1.5742188"
     inkscape:cx="255.68238"
     inkscape:cy="256"
     inkscape:window-width="1920"
     inkscape:window-height="1011"
     inkscape:window-x="0"
     inkscape:window-y="0"
     inkscape:window-maximized="1"
     inkscape:current-layer="svg8" /><g
     id="g8"><path
       fill="#002596"
       d="M0,64a64,64 0 0 1 64,-64h384a64,64 0 0 1 64,64v384a64,64 0 0 1 -64,64h-384a64,64 0 0 1 -64,-64z"
       id="path1" /><path
       stroke="#ffffff"
       stroke-width="21.33"
       stroke-linecap="round"
       fill-opacity="0"
       d="m 330.615,159.975 v -42.66 a 21.33,21.33 0 0 0 -21.33,-21.33 h -149.31 a 21.33,21.33 0 0 0 -21.33,21.33 v 319.95 a 21.33,21.33 0 0 0 21.33,21.33 h 149.31 a 21.33,21.33 0 0 0 21.33,-21.33 v -42.66"
       id="path2" /><path
       fill="#ffffff"
       d="M 170.64,85.32 V 63.99 a 21.33,21.33 0 0 1 21.33,-21.33 h 85.32 a 21.33,21.33 0 0 1 21.33,21.33 v 21.33 z"
       id="path3"
       style="stroke-width:21.33" /><path
       fill="#009000"
       d="M 298.62,127.98 H 170.64 v 85.32 h 85.32 a 106.65,106.65 0 0 1 42.66,-34.128 z"
       id="path4"
       style="stroke-width:21.33" /><path
       fill="#ffcc00"
       d="m 170.64,234.63 v 85.32 h 72.9486 a 106.65,106.65 0 0 1 0,-85.32 z"
       id="path5"
       style="stroke-width:21.33" /><path
       fill="#ff4444"
       d="M 170.64,341.28 V 426.6 H 298.62 V 375.408 A 106.65,106.65 0 0 1 255.96,341.28 Z"
       id="path6"
       style="stroke-width:21.33" /><path
       stroke="#ffffff"
       stroke-width="17.064"
       fill="#ffffff"
       fill-opacity="0.33"
       d="m 426.6,277.29 a 85.32,85.32 0 0 0 -170.64,0 85.32,85.32 0 0 0 170.64,0"
       id="path7"
       style="fill:#ffffff;fill-opacity:1" /><g
       id="g2"
       style="fill:#546db9;fill-opacity:1"
       transform="matrix(7.7018253,0,0,7.7018253,248.8581,184.8681)"><path
         d="M 12,2 C 6.48,2 2,6.48 2,12 2,17.52 6.48,22 12,22 17.52,22 22,17.52 22,12 22,6.48 17.52,2 12,2 Z m 0,4 c 1.93,0 3.5,1.57 3.5,3.5 C 15.5,11.43 13.93,13 12,13 10.07,13 8.5,11.43 8.5,9.5 8.5,7.57 10.07,6 12,6 Z m 0,14 C 9.97,20 7.57,19.18 5.86,17.12 7.55,15.8 9.68,15 12,15 c 2.32,0 4.45,0.8 6.14,2.12 C 16.43,19.18 14.03,20 12,20 Z"
         id="path1-3"
         style="fill:#546db9;fill-opacity:1" /></g></g></svg>
