<svg xmlns="http://www.w3.org/2000/svg" width="512" height="512">
	<path fill="#002596" d="M0,64a64,64 0 0 1 64,-64h384a64,64 0 0 1 64,64v384a64,64 0 0 1 -64,64h-384a64,64 0 0 1 -64,-64z" />

  <g transform="scale(21.33)">

	<path fill="#FFFFFF"
		d="M6,4a2,2 0 0 1 2,-2h8a2,2 0 0 1 2,2v16a2,2 0 0 1 -2,2h-8a2,2 0 0 1 -2,-2zM7.5,3.5v15h9v-15zM11,19.5a0.75,0.75 0 0 0 0,1.5h2a0.75,0.75 0 0 0 0,-1.5z" />
	<path fill="#FFFFFF" fill-opacity="0.33"
		d="M7.5,3.5v15h9v-15z" />
	<path fill="#FFCC00"
		d="M11,6.5h2v4h2l-3,3l-3,-3h2zm-2,8h6v1h-6z" />

</g>
</svg>
