<svg id="vector" xmlns="http://www.w3.org/2000/svg" width="108" height="108" viewBox="0 0 256 256">
<path fill="#002596" d="M64,0h128c35.35,0 64,28.65 64,64v128c0,35.35 -28.65,64 -64,64h-128c-35.35,0 -64,-28.65 -64,-64v-128c0,-35.35 28.65,-64 64,-64z" />
<g transform="translate(32,32) scale(0.75)">
<path fill="#FFFFFF" d="m197.47,127.79 l0.01,0.01h-3.13v63.03c0,10.19 -8.2,18.39 -18.39,18.39H80.03c-10.19,0 -18.39,-8.2 -18.39,-18.39v-63.03h-3.11c0,0 -9.29,2.83 -16.3,10.2 -9.18,9.64 -16.68,27.19 -16.68,57.92v37.82c0,0 -2.56,22.26 24.27,22.26h76.76,2.83 76.76c26.83,0 24.27,-22.26 24.27,-22.26v-37.82c0,-24.92 -3.09,-41.32 -10.62,-51.78 -8.85,-12.28 -22.36,-16.35 -22.36,-16.35z" stroke-width="8"/>
<path fill="#FFFFFF" d="M80.03,3.28L175.97,3.28A18.39,18.39 0,0 1,194.36 21.67L194.36,190.83A18.39,18.39 0,0 1,175.97 209.22L80.03,209.22A18.39,18.39 0,0 1,61.64 190.83L61.64,21.67A18.39,18.39 0,0 1,80.03 3.28z" stroke="#002596" stroke-width="12"/>
<path fill="#0099CC" d="M84.19,42.11h87.61v123.1h-87.61z" stroke-linejoin="round" stroke="#002596" stroke-width="12"/>
<path fill="#FFBB33" d="M121.11,69.5l-15.87,42.25l16.13,0l-13.64,33.33l41.34,-48.42l-17.46,-0.27l19.16,-26.9z"/>
<path fill="none" d="M88.25,238.35L167.75,238.35" stroke-linecap="round" stroke="#99CC00" stroke-width="8"/>
</g>
</svg>