<svg xmlns="http://www.w3.org/2000/svg" width="512" height="512">
	<path fill="#002596" d="M0,64a64,64 0 0 1 64,-64h384a64,64 0 0 1 64,64v384a64,64 0 0 1 -64,64h-384a64,64 0 0 1 -64,-64z" />

  <g transform="scale(21.33)">

	<path fill="#FFFFFF"
		d="M9.6,7h-5.6a1,1 0 0 0 -1,1v10a1,1 0 0 0 1,1h5.75l0.25,-1h-6v-10h5.3zM14.8,7h5.2a1,1 0 0 1 1,1v10a1,1 0 0 1 -1,1h-8.9l0.5,-1h8.4v-10h-5.6zM5,9h2v2h-2zm4.1,0h-1.1v2h0.7zm7.9,0h2v2h-2zm-1,1v1h-0.5zm-11,2h2v2h-2zm3.5,0h-0.5v2h2v-1.5h-1.6zm2.9,0.5h-0.4v1.5zm3.5,-0.5h1.1v2h-2v-0.3zm2.1,0h2v2h-2zm-12,3h2v2h-2zm5.75,0h-2.75v2h2.25zm2.5,0h2.75v2h-3.8zm3.75,0h2v2h-2z" />
	<path fill="#FFCC00"
		d="M16,3h-5l-2,9h3l-2,8l6,-11h-2.5z" />

</g>
</svg>
