<svg xmlns="http://www.w3.org/2000/svg" width="512" height="512">
	<path fill="#002596" d="M0,64a64,64 0 0 1 64,-64h384a64,64 0 0 1 64,64v384a64,64 0 0 1 -64,64h-384a64,64 0 0 1 -64,-64z" />

  <g transform="scale(21.33)">

	<path fill="#FFCC00"
		d="M11.5,4.95C11.5,6.4 11.3,10.1 10.3,10.8 9.3,11.5 6.4,11.5 4.95,11.5L4.95,12.5C6.4,12.5 9.3,12.5 10.3,13.2 11.3,13.9 11.5,17.6 11.5,19.05L12.5,19.05C12.5,17.6 12.7,13.9 13.7,13.2 14.7,12.5 17.6,12.5 19.05,12.5L19.05,11.5C17.6,11.5 14.7,11.5 13.7,10.8 12.7,10.1 12.5,6.4 12.5,4.95Z" />
	<path fill="#FFFFFF" stroke="#FFFFFF"
		stroke-width="1.5" stroke-linejoin="round"
		d="M10.5,2L13.5,2 14,4.5 12,4 10,4.5ZM2.59,8.3L4.09,5.7 6.5,6.52 5.07,8 4.5,9.98ZM4.09,18.3L2.59,15.7 4.5,14.02 5.07,16 6.5,17.48ZM13.5,22L10.5,22 10,19.5 12,20 14,19.5ZM21.41,15.7L19.91,18.3 17.5,17.48 18.93,16 19.5,14.02ZM19.91,5.7L21.41,8.3 19.5,9.98 18.93,8 17.5,6.52Z" />
	<path stroke="#FFFFFF" stroke-width="1.5" fill-opacity="0"
		d="M19.75,12a7.75,7.75 0 0 0 -15.5,0a7.75,7.75 0 0 0 15.5,0z" />

</g>
</svg>
