<svg xmlns="http://www.w3.org/2000/svg" width="512" height="512" viewBox="0 0 512 512">
<path fill="#002596" d="M0,64a64,64 0 0 1 64,-64h384a64,64 0 0 1 64,64v384a64,64 0 0 1 -64,64h-384a64,64 0 0 1 -64,-64z" />
<g transform="translate(18, 10) scale(0.5)">
    <path fill="#FFFFFF" d="M240,560h480v-120L400,440v-200h-80q-33,0 -56.5,23.5T240,320v240ZM480,800q20,0 40,-2.5t40,-7.5v-150L400,640v150q20,5 40,7.5t40,2.5ZM480,880q-80,0 -153,-30.5T197,763l57,-57q15,15 31.5,27.5T320,757v-117h-80q-33,0 -56.5,-23.5T160,560v-240q0,-66 47,-113t113,-47h160v200h240q33,0 56.5,23.5T800,440v120q0,33 -23.5,56.5T720,640h-80v117q18,-11 34.5,-23.5T706,706l57,57q-57,56 -130,86.5T480,880ZM400,440Z"/>
</g>
</svg>