<svg xmlns="http://www.w3.org/2000/svg" width="512" height="512">
	<path fill="#002596" d="M0,64a64,64 0 0 1 64,-64h384a64,64 0 0 1 64,64v384a64,64 0 0 1 -64,64h-384a64,64 0 0 1 -64,-64z" />

  <g transform="scale(21.33)">

	<path fill="#FFFFFF"
		d="M1.5,9.5a13.5,13.5 0 0 1 8.8,-3.9a7,7 0 0 0 -1.1,2.6a11,11 0 0 0 -5.9,3zM5,13a8.5,8.5 0 0 1 4.1,-2.3a7,7 0 0 0 0.9,2.4a6,6 0 0 0 -3.2,1.7zM8.5,16.5a3.5,3.5 0 0 1 5,0l-2.5,2.5z"/>
	<path fill="#FFFFFF" fill-opacify="0.33"
		d="M20,10a4,4 0 0 0 0,-1.1a13.5,13.5 0 0 0 -5.7,-3a4,4 0 0 0 -2,2.2a11,11 0 0 1 6.5,3.2zM17,13a8.5,8.5 0 0 0 -4.9,-2.4a4,4 0 0 0 4.4,2.9z"/>
	<path stroke="#FFCC00" stroke-width="2" fill-opacity="0"
		d="M16,4a5.5,5.5 0 0 1 0,11a5.5,5.5 0 0 1 0,-11z"/>
	<path fill="#FFCC00"
		d="m18.97,15.27 -0.91,0.38 0.14,0.36 -0.3,0.73 2.74,6.51 1.94,-0.82 -2.73,-6.52 -0.73,-0.3 z"/>

</g>
</svg>
