<svg xmlns="http://www.w3.org/2000/svg" width="512" height="512">
	<path fill="#002596" d="M0,64a64,64 0 0 1 64,-64h384a64,64 0 0 1 64,64v384a64,64 0 0 1 -64,64h-384a64,64 0 0 1 -64,-64z" />

  <g transform="scale(21.33)">

	<path fill="#FFFFFF"
		d="M4,5a1,1 0 0 0 -1,1v11a1,1 0 0 0 1,1h6v1.5h-1a1,1 0 0 0 -1,1v0.5h8v-0.5a1,1 0 0 0 -1,-1h-1v-1.5h6a1,1 0 0 0 1,-1v-11a1,1 0 0 0 -1,-1zM5,7h14v9h-14z" />
	<path fill="#FFFFFF" fill-opacity="0.33"
		d="M5,6v10h14v-10z" />
	<path stroke="#FFCC00" stroke-width="1" stroke-linejoin="round"
		d="M7,12h2zM8.5,9l1.5,1.5zM12,8v2zM14,10.5l1.5,-1.5zM15,12h2z" />

</g>
</svg>
