<svg id="svg4581" xmlns="http://www.w3.org/2000/svg" viewBox="0 0 502.67 502.67"><defs><style>.cls-1,.cls-2{fill:#002596;}.cls-2{fill-rule:evenodd;}</style></defs><title>Gear Icon</title><path class="cls-1" d="M438.67,508.33H75.33A69.87,69.87,0,0,1,5.67,438.67V75.33A69.87,69.87,0,0,1,75.33,5.67H438.67a69.87,69.87,0,0,1,69.66,69.66V438.67A69.87,69.87,0,0,1,438.67,508.33ZM478,280.4V232.83a16.91,16.91,0,0,0-16.91-16.91H436.75a19.44,19.44,0,0,1-18.41-13.33,165.34,165.34,0,0,0-8.88-21.41A19.48,19.48,0,0,1,413,158.69l17.21-17.21a16.91,16.91,0,0,0,0-23.91L396.6,83.93a16.91,16.91,0,0,0-23.91,0l-17.19,17.2A19.46,19.46,0,0,1,333,104.7a163.64,163.64,0,0,0-21.39-8.87,19.44,19.44,0,0,1-13.33-18.41V53.11a16.91,16.91,0,0,0-16.9-16.91H233.8a16.91,16.91,0,0,0-16.9,16.91V77.42a19.45,19.45,0,0,1-13.34,18.41,164.53,164.53,0,0,0-21.41,8.88,19.48,19.48,0,0,1-22.49-3.57L142.45,83.92a16.9,16.9,0,0,0-23.91,0L84.9,117.57a16.89,16.89,0,0,0,0,23.9l17.21,17.22a19.46,19.46,0,0,1,3.56,22.49,166.76,166.76,0,0,0-8.88,21.41,19.42,19.42,0,0,1-18.4,13.33H54.08a16.91,16.91,0,0,0-16.9,16.91V280.4a16.9,16.9,0,0,0,16.9,16.9H78.39A19.45,19.45,0,0,1,96.8,310.64,164.21,164.21,0,0,0,105.67,332a19.45,19.45,0,0,1-3.57,22.49L84.9,371.73a16.89,16.89,0,0,0,0,23.91l33.63,33.64a16.91,16.91,0,0,0,23.91,0l17.22-17.22a19.48,19.48,0,0,1,22.49-3.57,164.53,164.53,0,0,0,21.41,8.88,19.45,19.45,0,0,1,13.34,18.41v24.34A16.9,16.9,0,0,0,233.8,477h47.58a16.9,16.9,0,0,0,16.9-16.9V435.78a19.44,19.44,0,0,1,13.33-18.41A163.64,163.64,0,0,0,333,408.5a19.46,19.46,0,0,1,22.5,3.57l17.2,17.2a16.91,16.91,0,0,0,23.91,0l33.63-33.63a16.9,16.9,0,0,0,0-23.91L413,354.52A19.45,19.45,0,0,1,409.47,332a167,167,0,0,0,8.87-21.39,19.45,19.45,0,0,1,18.41-13.34h24.34A16.91,16.91,0,0,0,478,280.4Z" transform="translate(-5.67 -5.67)"/><path class="cls-2" d="M410,264.32C406.21,341.59,343.64,403.68,266.37,407c0-28.91,3.8-108.55,25.61-123.24,26.06-17.07,80.58-19.44,118-19.44ZM252.63,407C175.36,403.68,112.79,341.59,109,264.32c37.45,0,92,2.37,118,19.44,21.8,14.69,25.6,94.33,25.6,123.24ZM109,249.15c3.79-77.26,66.36-139.36,143.63-143.15,0,29.39-3.8,109-25.6,123.24-26.07,17.07-80.58,19.91-118,19.91ZM266.37,106c77.27,3.79,139.84,65.89,143.63,143.15-37.44,0-92-2.84-118-19.91C270.17,215,266.37,135.39,266.37,106Z" transform="translate(-5.67 -5.67)"/></svg>