<?xml version="1.0" encoding="UTF-8"?>
<svg version="1.1" xmlns="http://www.w3.org/2000/svg" width="200" height="200">
<path d="M0 0 C1.30852432 -0.01022186 2.61704865 -0.02044373 3.96522522 -0.03097534 C7.5316153 -0.05759545 11.09757943 -0.0589307 14.66404939 -0.05384874 C17.65325388 -0.05169787 20.64237419 -0.06150532 23.6315605 -0.07105958 C30.69096211 -0.09319564 37.75015085 -0.09415618 44.80957031 -0.08203125 C52.06422589 -0.06996146 59.31810473 -0.09455969 66.57262784 -0.13717139 C72.82607353 -0.17253658 79.07927348 -0.18438518 85.33281535 -0.1778959 C89.05676118 -0.17429011 92.78015313 -0.1793392 96.50400734 -0.20732498 C100.66333105 -0.23741773 104.82110015 -0.21842816 108.98046875 -0.1953125 C110.19488647 -0.21059998 111.4093042 -0.22588745 112.66052246 -0.24163818 C121.79213202 -0.13003136 129.5190535 2.2023376 136.61321735 8.1726284 C144.16082584 16.28748942 145.27713096 25.15279534 145.23364258 35.86499023 C145.24386444 37.17351456 145.2540863 38.48203888 145.26461792 39.83021545 C145.29123803 43.39660553 145.29257327 46.96256966 145.28749132 50.52903962 C145.28534045 53.51824411 145.2951479 56.50736442 145.30470216 59.49655074 C145.32683822 66.55595235 145.32779876 73.61514109 145.31567383 80.67456055 C145.30360404 87.92921613 145.32820227 95.18309497 145.37081397 102.43761808 C145.40617916 108.69106376 145.41802776 114.94426372 145.41153848 121.19780558 C145.40793269 124.92175141 145.41298178 128.64514337 145.44096756 132.36899757 C145.47106031 136.52832128 145.45207074 140.68609039 145.42895508 144.84545898 C145.44424255 146.05987671 145.45953003 147.27429443 145.47528076 148.5255127 C145.36367394 157.65712226 143.03130498 165.38404374 137.06101418 172.47820759 C128.94615316 180.02581607 120.08084724 181.14212119 109.36865234 181.09863281 C108.06012802 181.10885468 106.7516037 181.11907654 105.40342712 181.12960815 C101.83703704 181.15622827 98.27107291 181.15756351 94.70460296 181.15248156 C91.71539846 181.15033069 88.72627816 181.16013813 85.73709184 181.1696924 C78.67769023 181.19182846 71.61850149 181.192789 64.55908203 181.18066406 C57.30442645 181.16859427 50.05054761 181.1931925 42.7960245 181.2358042 C36.54257882 181.27116939 30.28937886 181.28301799 24.03583699 181.27652872 C20.31189117 181.27292292 16.58849921 181.27797201 12.864645 181.30595779 C8.7053213 181.33605054 4.54755219 181.31706098 0.38818359 181.29394531 C-0.82623413 181.30923279 -2.04065186 181.32452026 -3.29187012 181.340271 C-12.42347968 181.22866417 -20.15040116 178.89629521 -27.24456501 172.92600441 C-34.79217349 164.81114339 -35.90847861 155.94583747 -35.86499023 145.23364258 C-35.8752121 143.92511826 -35.88543396 142.61659393 -35.89596558 141.26841736 C-35.92258569 137.70202728 -35.92392093 134.13606315 -35.91883898 130.56959319 C-35.91668811 127.5803887 -35.92649555 124.59126839 -35.93604982 121.60208207 C-35.95818588 114.54268046 -35.95914642 107.48349173 -35.94702148 100.42407227 C-35.9349517 93.16941668 -35.95954993 85.91553785 -36.00216162 78.66101474 C-36.03752682 72.40756905 -36.04937541 66.15436909 -36.04288614 59.90082723 C-36.03928034 56.1768814 -36.04432943 52.45348944 -36.07231522 48.72963524 C-36.10240796 44.57031153 -36.0834184 40.41254243 -36.06030273 36.25317383 C-36.08323395 34.43154724 -36.08323395 34.43154724 -36.10662842 32.57312012 C-35.99502159 23.44151056 -33.66265264 15.71458908 -27.69236183 8.62042522 C-19.57750081 1.07281674 -10.71219489 -0.04348838 0 0 Z M-22.31567383 13.54931641 C-29.41324853 22.65272743 -29.46558472 31.11334226 -29.4609375 42.21679688 C-29.46429611 43.37379089 -29.46765472 44.53078491 -29.47111511 45.72283936 C-29.48059331 49.53740521 -29.48256659 53.35192702 -29.48364258 57.16650391 C-29.48604415 59.1529552 -29.48844757 61.1394065 -29.49110299 63.12585747 C-29.4992279 69.36808791 -29.501689 75.61030394 -29.50097656 81.85253906 C-29.50037602 88.27306599 -29.51092777 94.69350884 -29.52672023 101.11401451 C-29.53983263 106.64376621 -29.54515892 112.17349056 -29.54452115 117.70325768 C-29.54426728 120.9982702 -29.54798933 124.29319146 -29.5576992 127.58819199 C-29.56752486 131.26654746 -29.56461082 134.94468774 -29.55859375 138.62304688 C-29.56421326 139.7017807 -29.56983276 140.78051453 -29.57562256 141.89193726 C-29.53646845 151.33818293 -28.67922499 160.15209196 -22.31567383 167.54931641 C-14.02198397 174.68406271 -3.8866837 174.84749713 6.57885742 174.80810547 C7.73614349 174.81161011 8.89342957 174.81511475 10.08578491 174.81872559 C13.88952738 174.82748699 17.693082 174.82171341 21.49682617 174.81494141 C24.15283436 174.81628966 26.80883696 174.81822883 29.46484375 174.82073975 C35.02272556 174.82436807 40.58055404 174.81961018 46.13842773 174.81005859 C52.5442358 174.79917621 58.9499165 174.80270259 65.35572147 174.8137114 C70.87702803 174.82281672 76.39829647 174.82405376 81.91960812 174.81883407 C85.20787416 174.81573213 88.49606797 174.81605278 91.78433228 174.82190704 C95.45290647 174.82700559 99.12123867 174.81921505 102.78979492 174.80810547 C104.40318253 174.81417816 104.40318253 174.81417816 106.04916382 174.82037354 C115.48491694 174.76763721 124.29574063 173.90543585 131.68432617 167.54931641 C138.81907247 159.25562654 138.9825069 149.12032628 138.94311523 138.65478516 C138.94661987 137.49749908 138.95012451 136.34021301 138.95373535 135.14785767 C138.96249676 131.3441152 138.95672317 127.54056058 138.94995117 123.73681641 C138.95129943 121.08080822 138.9532386 118.42480562 138.95574951 115.76879883 C138.95937783 110.21091702 138.95461994 104.65308854 138.94506836 99.09521484 C138.93418597 92.68940678 138.93771236 86.28372608 138.94872117 79.8779211 C138.95782648 74.35661455 138.95906352 68.83534611 138.95384383 63.31403446 C138.9507419 60.02576842 138.95106254 56.73757461 138.95691681 53.4493103 C138.96201535 49.7807361 138.95422482 46.11240391 138.94311523 42.44384766 C138.94918793 40.83046005 138.94918793 40.83046005 138.9553833 39.18447876 C138.90346903 29.89581015 138.15891858 20.71653963 131.68432617 13.54931641 C122.58091515 6.45174171 114.12030032 6.39940551 103.0168457 6.40405273 C101.28135468 6.39901482 101.28135468 6.39901482 99.51080322 6.39387512 C95.69623737 6.38439692 91.88171556 6.38242365 88.06713867 6.38134766 C86.08068738 6.37894609 84.09423608 6.37654266 82.10778511 6.37388724 C75.86555467 6.36576234 69.62333864 6.36330123 63.38110352 6.36401367 C56.96057659 6.36461422 50.54013374 6.35406246 44.11962807 6.33827001 C38.58987636 6.3251576 33.06015202 6.31983131 27.5303849 6.32046908 C24.23537237 6.32072295 20.94045111 6.3170009 17.64545059 6.30729103 C13.96709512 6.29746537 10.28895483 6.30037942 6.6105957 6.30639648 C5.53186188 6.30077698 4.45312805 6.29515747 3.34170532 6.28936768 C-5.95698643 6.32791018 -15.14009484 7.06717573 -22.31567383 13.54931641 Z " fill="#000000" transform="translate(45.315673828125,9.45068359375)"/>
</svg>
