<svg xmlns="http://www.w3.org/2000/svg" viewBox="0 0 502.67 502.67"><path d="M433 502.66H69.66A69.87 69.87 0 010 433V69.66A69.87 69.87 0 0169.66 0H433a69.87 69.87 0 0169.66 69.66V433A69.87 69.87 0 01433 502.66zm39.33-227.93v-47.57a16.91 16.91 0 00-16.91-16.91h-24.34a19.44 19.44 0 01-18.41-13.33 165.34 165.34 0 00-8.88-21.41 19.48 19.48 0 013.54-22.49l17.21-17.21a16.91 16.91 0 000-23.91l-33.61-33.64a16.91 16.91 0 00-23.91 0l-17.19 17.2a19.46 19.46 0 01-22.5 3.57 163.64 163.64 0 00-21.39-8.87 19.44 19.44 0 01-13.33-18.41V47.44a16.91 16.91 0 00-16.9-16.91h-47.58a16.91 16.91 0 00-16.9 16.91v24.31a19.45 19.45 0 01-13.34 18.41 164.53 164.53 0 00-21.41 8.88 19.48 19.48 0 01-22.49-3.57l-17.21-17.22a16.9 16.9 0 00-23.91 0L79.23 111.9a16.89 16.89 0 000 23.9l17.21 17.22a19.46 19.46 0 013.56 22.49 166.76 166.76 0 00-8.88 21.41 19.42 19.42 0 01-18.4 13.33H48.41a16.91 16.91 0 00-16.9 16.91v47.57a16.9 16.9 0 0016.9 16.9h24.31a19.45 19.45 0 0118.41 13.34 164.21 164.21 0 008.87 21.36 19.45 19.45 0 01-3.57 22.49l-17.2 17.24a16.89 16.89 0 000 23.91l33.63 33.64a16.91 16.91 0 0023.91 0l17.22-17.22a19.48 19.48 0 0122.49-3.57 164.53 164.53 0 0021.41 8.88 19.45 19.45 0 0113.34 18.41v24.34a16.9 16.9 0 0016.9 16.88h47.58a16.9 16.9 0 0016.9-16.9v-24.32a19.44 19.44 0 0113.33-18.41 163.64 163.64 0 0021.39-8.87 19.46 19.46 0 0122.5 3.57l17.2 17.2a16.91 16.91 0 0023.91 0l33.63-33.63a16.9 16.9 0 000-23.91l-17.24-17.21a19.45 19.45 0 01-3.53-22.52 167 167 0 008.87-21.39 19.45 19.45 0 0118.41-13.34h24.34a16.91 16.91 0 0016.91-16.87z" fill="#002596"/><path d="M404.33 258.65c-3.79 77.27-66.36 139.36-143.63 142.68 0-28.91 3.8-108.55 25.61-123.24 26.06-17.07 80.58-19.44 118-19.44zM246.96 401.33c-77.27-3.32-139.84-65.41-143.63-142.68 37.45 0 92 2.37 118 19.44 21.8 14.69 25.6 94.33 25.6 123.24zM103.33 243.48c3.79-77.26 66.36-139.36 143.63-143.15 0 29.39-3.8 109-25.6 123.24-26.07 17.07-80.58 19.91-118 19.91zM260.7 100.33c77.27 3.79 139.84 65.89 143.63 143.15-37.44 0-92-2.84-118-19.91-21.83-14.24-25.63-93.85-25.63-123.24z" fill-rule="evenodd" fill="#002596"/></svg>