<svg xmlns="http://www.w3.org/2000/svg" height="24" viewBox="0 0 24 24" width="24"><path d="M0 0h24v24H0z" fill="none"/><path stroke="#000000" stroke-width="0.9" stroke-linejoin="round" d="M15,3.7l0.3,-1.5 1.8,0 0.3,1.5zM11.7,6.99l-1.15,-1.01 0.9,-1.56 1.45,0.49zM12.9,11.49l-1.45,0.49 -0.9,-1.56 1.15,-1.01zM15,12.7l0.3,1.5 1.8,0 0.3,-1.5zM19.5,11.49l1.45,0.49 0.9,-1.56 -1.15,-1.01 zM20.7,6.99l1.15,-1.018 -0.9,-1.56 -1.45,0.49z" /><path fill="none" stroke="#000000" stroke-width="2.7" d="M12.6,8.2a3.6,3.6 0 0 0 7.2,0a3.6,3.6 0 0 0 -7.2,0z" /><path d="M7.8,15.4a4.2,4.2 0 1 1 2.1,-2.1l7,7 -2.1,2.1 -1.05,-1.05 -1.4,1.4 -1.4,-1.4 1.4,-1.4 -0.7,-0.7 -1.05,1.05 -1.4,-1.4 1.05,-1.05 -2.45,-2.45zM5.35,9.45a1.4,1.4 0 0 0 0,2.8a1.4,1.4 0 0 0 0,-2.8z" /></svg>
